<?xml version="1.0" encoding="iso-8859-1"?>
<!-- Generator: Adobe Illustrator 19.0.0, SVG Export Plug-In . SVG Version: 6.00 Build 0)  -->
<svg version="1.1" id="Capa_1" xmlns="http://www.w3.org/2000/svg" xmlns:xlink="http://www.w3.org/1999/xlink" x="0px" y="0px"
	 viewBox="0 0 512 512" style="enable-background:new 0 0 512 512;" xml:space="preserve">
<path style="fill:#FFAF00;" d="M341,115v382c0,8.28-6.72,15-15,15H186c-8.28,0-15-6.72-15-15V75c0-8.28,6.72-15,15-15h93.33
	c3.58,0,7.05,1.28,9.77,3.61l5.23,4.48l41.43,35.52C339.09,106.46,341,110.62,341,115z"/>
<path style="fill:#FC9E00;" d="M335.76,103.61l-41.43-35.52l-5.23-4.48c-2.72-2.33-6.19-3.61-9.77-3.61H256v452h70
	c8.28,0,15-6.72,15-15V115C341,110.62,339.09,106.46,335.76,103.61z"/>
<path style="fill:#F88D00;" d="M289.1,63.61c-2.72-2.33-6.19-3.61-9.77-3.61h-15v452h30V68.09L289.1,63.61z"/>
<path style="fill:#FC9E00;" d="M217.67,512h30V60h-30V512z"/>
<path style="fill:#F88D00;" d="M326,0H186c-8.284,0-15,6.716-15,15v60c0,8.284,6.716,15,15,15h87.785l42.454,36.389
	c4.453,3.818,10.716,4.683,16.03,2.239C337.59,126.18,341,120.858,341,115V15C341,6.716,334.284,0,326,0z"/>
<path style="fill:#F57C00;" d="M326,0h-70v90h17.785l42.454,36.389c4.453,3.818,10.716,4.683,16.03,2.239
	C337.59,126.18,341,120.858,341,115V15C341,6.716,334.284,0,326,0z"/>
<g>
</g>
<g>
</g>
<g>
</g>
<g>
</g>
<g>
</g>
<g>
</g>
<g>
</g>
<g>
</g>
<g>
</g>
<g>
</g>
<g>
</g>
<g>
</g>
<g>
</g>
<g>
</g>
<g>
</g>
</svg>
