<svg height="512pt" viewBox="0 -16 512 512" width="512pt" xmlns="http://www.w3.org/2000/svg"><path d="m256 0c-123.601562 0-256 98.097656-256 255v210c0 8.398438 6.597656 15 15 15h482c8.402344 0 15-6.601562 15-15 0-5.101562 0-210.601562 0-210.601562-.300781-138.898438-114.699219-254.398438-256-254.398438zm0 0" fill="#dd8858"/><path d="m512 254.398438v210.601562c0 8.398438-6.597656 15-15 15h-241v-480c141.300781 0 255.699219 115.5 256 254.398438zm0 0" fill="#ca6d36"/><path d="m421 255v75h-91.800781l-73.199219-30-73.199219 30h-91.800781v-75c0-90.902344 74.097656-165 165-165s165 74.097656 165 165zm0 0" fill="#714c2f"/><path d="m421 255v75h-91.800781l-73.199219-30v-210c90.902344 0 165 74.097656 165 165zm0 0" fill="#523522"/><path d="m271 60.761719v-30c43.207031 2.867187 83.046875 17.902343 116.203125 41.824219l-21.398437 21.398437c-27.410157-18.746094-59.84375-30.542969-94.804688-33.222656zm0 0" fill="#a05528"/><path d="m241 60.761719c-34.960938 2.679687-67.394531 14.476562-94.804688 33.222656l-21.398437-21.398437c33.15625-23.921876 72.996094-38.957032 116.203125-41.824219zm0 0" fill="#ca6d36"/><path d="m481 255v75h-30v-75c0-5.0625-.378906-10.03125-.761719-15h30c.332031 4.980469.761719 9.9375.761719 15zm0 0" fill="#a05528"/><path d="m271 360h90v30h-90zm0 0" fill="#a05528"/><g fill="#ca6d36"><path d="m151 360h90v30h-90zm0 0"/><path d="m61 255v75h-30v-75c0-5.0625.429688-10.019531.761719-15h30c-.382813 4.96875-.761719 9.9375-.761719 15zm0 0"/><path d="m31 360h90v30h-90zm0 0"/><path d="m211 420h90v30h-90zm0 0"/></g><path d="m331 420h90v30h-90zm0 0" fill="#a05528"/><path d="m391 360h90v30h-90zm0 0" fill="#a05528"/><path d="m476.464844 210h-30.917969c-8.972656-37.78125-28.910156-71.265625-56.332031-97.007812l21.207031-21.207032c32.960937 31.199219 56.644531 72.089844 66.042969 118.214844zm0 0" fill="#a05528"/><path d="m101.574219 91.785156 21.207031 21.207032c-27.417969 25.742187-47.355469 59.226562-56.332031 97.007812h-30.914063c9.398438-46.125 33.082032-87.015625 66.039063-118.214844zm0 0" fill="#ca6d36"/><path d="m31 420h30v30h-30zm0 0" fill="#ca6d36"/><path d="m451 420h30v30h-30zm0 0" fill="#a05528"/><path d="m91 420h90v30h-90zm0 0" fill="#ca6d36"/><path d="m256 420h45v30h-45zm0 0" fill="#a05528"/><path d="m361 255c0 29.398438-12.300781 55.800781-31.800781 75h-30.898438l-42.300781-18.898438h-.300781l-42 18.898438h-30.898438c-19.5-19.199219-31.800781-45.601562-31.800781-75 0-30 12.898438-58.800781 35.699219-78.898438l59.398437-52.5c2.703125-2.402343 6.300782-3.601562 9.902344-3.601562s7.199219 1.199219 9.902344 3.601562l59.398437 52.5c22.800781 20.097657 35.699219 48.898438 35.699219 78.898438zm0 0" fill="#ffb751"/><path d="m361 255c0 29.398438-12.300781 55.800781-31.800781 75h-30.898438l-42.300781-18.898438v-191.101562c3.601562 0 7.199219 1.199219 9.902344 3.601562l59.398437 52.5c22.800781 20.097657 35.699219 48.898438 35.699219 78.898438zm0 0" fill="#ff9b00"/><path d="m301 315c0 5.398438-1.199219 10.199219-2.699219 15h-84.601562c-1.5-4.800781-2.699219-9.601562-2.699219-15 0-17.699219 9.601562-28.800781 15.300781-33.898438l19.796875-17.402343c2.703125-2.699219 6.300782-3.898438 9.902344-3.898438s7.199219 1.199219 9.902344 3.898438l19.796875 17.402343c5.699219 5.097657 15.300781 16.199219 15.300781 33.898438zm0 0" fill="#ff9b00"/><path d="m301 315c0 5.398438-1.199219 10.199219-2.699219 15h-42.300781v-70.199219c3.601562 0 7.199219 1.199219 9.902344 3.898438l19.796875 17.402343c5.699219 5.097657 15.300781 16.199219 15.300781 33.898438zm0 0" fill="#ff8900"/></svg>