<svg height="512pt" viewBox="0 -48 512 512" width="512pt" xmlns="http://www.w3.org/2000/svg"><g fill="#efe2dd"><path d="m251.671875 77.027344c-4.265625 0-7.726563-3.457032-7.726563-7.726563 0-12.832031 8.65625-14.859375 8.65625-20.523437 0-5.671875-8.65625-7.683594-8.65625-20.527344 0-12.832031 8.65625-14.855469 8.65625-20.523438 0-4.265624 3.457032-7.726562 7.726563-7.726562 4.265625 0 7.726563 3.460938 7.726563 7.726562 0 12.832032-8.65625 14.859376-8.65625 20.523438 0 5.671875 8.65625 7.6875 8.65625 20.527344 0 12.832031-8.65625 14.859375-8.65625 20.523437 0 4.269531-3.457032 7.726563-7.726563 7.726563zm0 0"/><path d="m135.558594 121.324219c-4.265625 0-7.726563-3.460938-7.726563-7.726563 0-12.839844 8.65625-14.855468 8.65625-20.53125 0-5.667968-8.65625-7.691406-8.65625-20.527344 0-12.835937 8.65625-14.859374 8.65625-20.527343 0-4.265625 3.457031-7.726563 7.726563-7.726563 4.265625 0 7.722656 3.460938 7.722656 7.726563 0 12.835937-8.652344 14.859375-8.652344 20.527343 0 5.644532 8.652344 7.757813 8.652344 20.527344 0 12.824219-8.652344 14.871094-8.652344 20.53125 0 4.265625-3.460937 7.726563-7.726562 7.726563zm0 0"/><path d="m367.785156 121.324219c-4.265625 0-7.722656-3.460938-7.722656-7.726563 0-12.839844 8.652344-14.855468 8.652344-20.53125 0-5.667968-8.652344-7.691406-8.652344-20.527344 0-12.835937 8.652344-14.859374 8.652344-20.527343 0-4.265625 3.460937-7.726563 7.726562-7.726563s7.726563 3.460938 7.726563 7.726563c0 12.835937-8.65625 14.859375-8.65625 20.527343 0 5.644532 8.65625 7.757813 8.65625 20.527344 0 12.824219-8.65625 14.871094-8.65625 20.53125.003906 4.265625-3.457031 7.726563-7.726563 7.726563zm0 0"/></g><path d="m416.179688 416.714844h-323.402344c-18.195313 0-34.671875-10.742188-42.015625-27.390625l-35.375-80.191407h478.183593l-35.375 80.191407c-7.34375 16.648437-23.824218 27.390625-42.015624 27.390625zm0 0" fill="#a8d3d8"/><path d="m459.253906 309.132812-35.375 80.191407c-7.34375 16.648437-23.820312 27.390625-42.015625 27.390625h34.316407c18.191406 0 34.671874-10.742188 42.015624-27.390625l35.375-80.191407zm0 0" fill="#8ebac5"/><path d="m505.636719 318.066406c-1.417969-4.671875-33.984375-68.851562-71.164063-104.800781-102.8125-99.421875-257.203125-99.425781-360.011718-.003906-37.289063 36.0625-69.722657 100.125-71.144532 104.804687zm0 0" fill="#fccd7f"/><path d="m434.472656 213.265625c-55.796875-53.957031-126.789062-78.621094-196.480468-74.007813 58.722656 3.882813 116.523437 28.542969 163.539062 74.007813 37.179688 35.949219 69.742188 100.128906 71.164062 104.800781h32.941407c-1.421875-4.671875-33.984375-68.851562-71.164063-104.800781zm0 0" fill="#eab765"/><path d="m512 320.03125c0-8.492188-6.539062-15.824219-15.660156-17.539062-17.582032-3.308594-22.640625-11.71875-48.347656-11.71875-32.003907 0-32.003907 13.03125-64.007813 13.03125-31.996094 0-31.996094-13.03125-63.996094-13.03125s-32 13.03125-64 13.03125-32-13.03125-63.996093-13.03125c-32 0-32 13.03125-63.996094 13.03125-32 0-32-13.03125-64-13.03125-25.703125 0-30.761719 8.410156-48.339844 11.71875-9.117188 1.714843-15.65625 9.046874-15.65625 17.539062 0 8.476562 7.535156 15.351562 16.828125 15.351562h478.34375c9.292969 0 16.828125-6.871093 16.828125-15.351562zm0 0" fill="#eab765"/><path d="m256 218.125c-4.265625 0-7.726562-3.460938-7.726562-7.726562v-11.613282c0-4.265625 3.460937-7.726562 7.726562-7.726562s7.726562 3.460937 7.726562 7.726562v11.613282c0 4.265624-3.460937 7.726562-7.726562 7.726562zm0 0" fill="#ff8709"/><path d="m353.800781 228.097656c-2.234375 0-4.449219-.960937-5.976562-2.820312l-10.738281-13.066406c-2.710938-3.296876-2.234376-8.164063 1.0625-10.875 3.296874-2.710938 8.164062-2.234376 10.875 1.0625l10.742187 13.066406c2.707031 3.296875 2.230469 8.167968-1.066406 10.875-1.4375 1.183594-3.175781 1.757812-4.898438 1.757812zm0 0" fill="#ff8709"/><path d="m158.199219 228.097656c-1.722657 0-3.460938-.574218-4.898438-1.757812-3.296875-2.707032-3.773437-7.578125-1.0625-10.875l10.738281-13.066406c2.710938-3.296876 7.578126-3.773438 10.875-1.0625 3.296876 2.707031 3.773438 7.578124 1.0625 10.875l-10.738281 13.066406c-1.527343 1.859375-3.742187 2.820312-5.976562 2.820312zm0 0" fill="#ff8709"/></svg>